<?xml version="1.0" ?><!DOCTYPE svg  PUBLIC '-//W3C//DTD SVG 1.1//EN'  'http://www.w3.org/Graphics/SVG/1.1/DTD/svg11.dtd'><svg height="512px" style="enable-background:new 0 0 512 512;" version="1.1" viewBox="0 0 512 512" width="512px" xml:space="preserve" xmlns="http://www.w3.org/2000/svg" xmlns:xlink="http://www.w3.org/1999/xlink"><g id="drinks__x2C__glass__x2C__bottle__x2C__drink__x2C_"><g><g><path d="M303.39,340.816c-3.729,0-7.483-0.378-11.159-1.125c-14.68-2.743-27.472-11.17-35.95-23.715     c-8.608-12.736-11.682-28.084-8.655-43.215l10.028-51.105c0.478-2.438,2.841-4.029,5.278-3.55l102.717,20.063     c2.438,0.476,4.029,2.837,3.555,5.275l-10.032,51.597C353.773,321.582,330.316,340.816,303.39,340.816z M265.62,227.802     l-9.166,46.709c-2.554,12.769,0.033,25.699,7.283,36.427c7.12,10.535,17.852,17.609,30.216,19.92     c3.156,0.642,6.308,0.959,9.437,0.959c22.666,0,42.414-16.203,46.955-38.529l9.167-47.146L265.62,227.802z" style="fill:#221F20;"/></g><g><path d="M280.229,404.266c-0.293,0-0.59-0.028-0.888-0.089c-2.438-0.487-4.018-2.858-3.529-5.295     l12.903-64.483c0.487-2.437,2.861-4.022,5.295-3.529c2.438,0.487,4.018,2.858,3.529,5.295l-12.903,64.483     C284.208,402.786,282.329,404.266,280.229,404.266z" style="fill:#221F20;"/></g><g><path d="M305.55,410.965c-0.288,0-0.579-0.027-0.872-0.085l-51.12-10.04     c-2.439-0.479-4.027-2.845-3.548-5.283c0.479-2.438,2.845-4.027,5.283-3.549l51.12,10.04c2.438,0.479,4.027,2.845,3.549,5.283     C309.539,409.477,307.657,410.965,305.55,410.965z" style="fill:#221F20;"/></g><g><path d="M360.011,272.896c-0.285,0-0.573-0.027-0.864-0.084L255.96,252.749     c-2.439-0.475-4.033-2.837-3.559-5.276c0.475-2.439,2.831-4.031,5.277-3.559l103.187,20.064c2.439,0.474,4.032,2.836,3.558,5.276     C364.005,271.403,362.121,272.896,360.011,272.896z" style="fill:#221F20;"/></g><g><path d="M443.706,340.816c-0.001,0-0.002,0-0.003,0c-27.293-0.002-50.689-19.267-55.632-45.808     l-10.495-51.524c-0.24-1.176,0-2.399,0.667-3.397s1.705-1.688,2.884-1.918l103.185-20.063c2.432-0.474,4.797,1.115,5.275,3.551     l10.032,51.122c3.024,15.117-0.05,30.467-8.658,43.204c-8.476,12.542-21.266,20.967-36.013,23.723     C451.274,340.438,447.474,340.816,443.706,340.816z M387.301,246.138l9.604,47.148c4.164,22.356,23.84,38.529,46.799,38.53     c0.001,0,0.003,0,0.004,0c3.177,0,6.384-0.318,9.533-0.948c12.418-2.32,23.146-9.393,30.265-19.925     c7.25-10.729,9.837-23.661,7.286-36.416l-9.171-46.729L387.301,246.138z" style="fill:#221F20;"/></g><g><path d="M466.536,404.266c-2.114,0-3.999-1.497-4.414-3.65l-12.419-64.483     c-0.47-2.44,1.128-4.8,3.568-5.27c2.438-0.471,4.799,1.128,5.27,3.568l12.419,64.483c0.47,2.44-1.128,4.8-3.568,5.27     C467.104,404.239,466.818,404.266,466.536,404.266z" style="fill:#221F20;"/></g><g><path d="M441.691,410.965c-2.107,0-3.989-1.488-4.411-3.634c-0.479-2.438,1.11-4.804,3.549-5.283     l51.119-10.04c2.445-0.474,4.804,1.111,5.283,3.549c0.479,2.438-1.11,4.804-3.549,5.283l-51.119,10.04     C442.271,410.937,441.979,410.965,441.691,410.965z" style="fill:#221F20;"/></g><g><path d="M387.23,272.896c-2.109,0-3.992-1.49-4.412-3.639c-0.476-2.438,1.115-4.803,3.555-5.279     l102.718-20.063c2.435-0.479,4.802,1.115,5.279,3.554c0.476,2.439-1.115,4.803-3.555,5.279l-102.718,20.064     C387.807,272.868,387.517,272.896,387.23,272.896z" style="fill:#221F20;"/></g><g><path d="M44.974,252.629c-7.96,0-14.949-5.632-16.618-13.393l-16.232-74.028     c-0.956-4.434-0.118-8.973,2.355-12.799c2.467-3.815,6.25-6.436,10.653-7.378l194.766-42.957     c1.411-0.389,2.866-0.586,4.328-0.586c7.958,0,14.88,5.727,16.459,13.617c1.083,5.104,4.401,11.958,20.521,11.958     c13.64,0,30.939-4.737,46.202-8.917c7.708-2.111,14.988-4.104,20.743-5.154c2.384-0.427,4.691,1.102,5.205,3.476l6.204,28.671     c0.489,2.264-0.819,4.53-3.025,5.237c-5.849,1.875-13.663,3.543-21.937,5.31c-20.355,4.347-48.233,10.299-56.018,22.487     c-2.058,3.222-2.606,6.775-1.676,10.864c1.969,9.215-3.869,18.255-13,20.211L48.535,252.25     C47.347,252.503,46.158,252.629,44.974,252.629z M224.225,110.489c-0.675,0-1.348,0.095-2,0.281     c-0.088,0.025-0.177,0.047-0.267,0.067l-194.917,42.99c-2.077,0.444-3.845,1.675-5.005,3.469     c-1.167,1.805-1.564,3.936-1.119,6.001l16.233,74.03c0.787,3.66,4.075,6.303,7.823,6.302c0.552,0,1.108-0.059,1.653-0.175     l195.368-43.001c4.306-0.922,7.041-5.171,6.121-9.477c-1.458-6.409-0.493-12.366,2.88-17.647     c9.809-15.358,38.594-21.505,61.722-26.444c6.263-1.337,12.254-2.617,17.159-3.937l-4.374-20.214     c-4.629,1.057-10.056,2.543-15.719,4.094c-15.809,4.33-33.728,9.237-48.577,9.237c-0.001,0-0.002,0-0.003,0     c-16.771,0-26.64-6.44-29.334-19.141C231.119,113.173,227.908,110.489,224.225,110.489z" style="fill:#221F20;"/></g><g><path d="M313.667,155.841c-0.854,0-1.696-0.243-2.426-0.71c-1.009-0.646-1.719-1.667-1.972-2.836     l-6.213-28.654c-0.521-2.399,0.978-4.772,3.367-5.334c7.222-1.698,14.049-3.405,19.535-4.776l1.908-0.477     c1.18-0.294,2.432-0.099,3.467,0.545c1.034,0.643,1.764,1.679,2.021,2.869l6.204,28.671c0.485,2.245-0.797,4.495-2.976,5.221     c-4.978,1.659-10.863,2.946-17.679,4.437c-1.379,0.302-2.801,0.612-4.264,0.937C314.319,155.806,313.992,155.841,313.667,155.841     z M312.787,126.045l4.321,19.932c4.765-1.042,9.056-1.982,12.775-2.999l-4.343-20.067     C321.714,123.867,317.378,124.942,312.787,126.045z" style="fill:#221F20;"/></g><g><path d="M105.378,239.928c-0.848,0-1.686-0.24-2.413-0.702c-1.009-0.64-1.721-1.656-1.98-2.822     l-21.98-98.9c-0.26-1.167-0.044-2.39,0.6-3.398c0.644-1.008,1.662-1.718,2.83-1.974l115.613-25.313     c1.166-0.255,2.386-0.037,3.391,0.608c1.005,0.644,1.713,1.662,1.968,2.828l21.494,98.421c0.528,2.418-0.997,4.81-3.413,5.351     l-115.126,25.791C106.036,239.892,105.707,239.928,105.378,239.928z M88.77,139.958l20.023,90.093l106.359-23.827l-19.578-89.65     L88.77,139.958z" style="fill:#221F20;"/></g><g><path d="M109.669,156.796c-2.064,0-3.925-1.43-4.389-3.529c-0.537-2.427,0.995-4.829,3.421-5.366     l66.887-14.796c2.426-0.537,4.829,0.995,5.366,3.421c0.537,2.427-0.995,4.829-3.421,5.366l-66.887,14.796     C110.318,156.762,109.992,156.796,109.669,156.796z" style="fill:#221F20;"/></g><g><path d="M344.719,126.711c-1.651,0-3.24-0.911-4.028-2.488c-1.112-2.223-0.212-4.926,2.012-6.038     l21.026-10.518c2.224-1.114,4.927-0.211,6.037,2.011c1.112,2.223,0.212,4.926-2.012,6.038l-21.026,10.518     C346.082,126.558,345.395,126.711,344.719,126.711z" style="fill:#221F20;"/></g><g><path d="M349.493,136.733c-2.061,0-3.918-1.423-4.388-3.518c-0.543-2.425,0.983-4.832,3.408-5.375     l27.708-6.204c2.431-0.545,4.831,0.983,5.375,3.408c0.543,2.425-0.983,4.832-3.408,5.375l-27.708,6.204     C350.149,136.698,349.818,136.733,349.493,136.733z" style="fill:#221F20;"/></g><g><path d="M376.729,155.365c-0.472,0-0.951-0.074-1.423-0.231l-24.367-8.114     c-2.357-0.785-3.633-3.333-2.848-5.691c0.784-2.358,3.334-3.635,5.691-2.848l24.367,8.114c2.357,0.785,3.633,3.333,2.848,5.691     C380.369,154.172,378.612,155.365,376.729,155.365z" style="fill:#221F20;"/></g></g></g><g id="Layer_1"/></svg>