<?xml version="1.0" ?><svg id="Layer_1" style="enable-background:new 0 0 64 64;" version="1.1" viewBox="0 0 64 64" xml:space="preserve" xmlns="http://www.w3.org/2000/svg" xmlns:xlink="http://www.w3.org/1999/xlink"><style type="text/css">
	.st0{fill:none;stroke:#1A1A1A;stroke-width:2;stroke-linecap:round;stroke-linejoin:round;stroke-miterlimit:10;}
	.st1{fill:#1A1A1A;}
	.st2{fill:none;stroke:#000000;stroke-width:2;stroke-linecap:round;stroke-linejoin:round;stroke-miterlimit:10;}
	.st3{fill:none;stroke:#1A1A1A;stroke-width:2;stroke-linecap:round;stroke-linejoin:round;}
	.st4{fill:none;stroke:#1A1A1A;stroke-width:2;stroke-linecap:round;stroke-linejoin:round;stroke-dasharray:5.8,5.8;}
</style><g id="XMLID_3_"><path class="st0" d="M43.3,31.5C31.1,28.1,19,30.5,7,39c8.9,18.5,41.8,18,52,0c-1.7-1.2-3.4-2.2-5.2-3.1   C50.3,33.9,46.8,32.5,43.3,31.5"/><path class="st0" d="M15,40c0,0,5.3,1,10.4,5c0,0,9.3-6,25.6-6"/><path class="st0" d="M7,39H5c2.8-8.7,2.6-17.3,0-26c13.3,1.3,26.7,1.3,40,0c-1,3.3-1.6,6.7-1.9,10c-0.2,2.8-0.2,5.7,0.2,8.5v0"/><path class="st0" d="M43.1,23h9.4c3.6,0,6.5,2.9,6.5,6.5c0,1.6-0.5,3-1.5,4.1c-0.9,1.1-2.2,1.9-3.7,2.2"/></g></svg>